<svg width="140" height="24" viewBox="0 0 140 24" fill="none" xmlns="http://www.w3.org/2000/svg">
<path d="M1.68447 16.2102L8.42131 6.10498H18.316L13.2634 11.5787L10.7371 12.2102H12.6318H19.1582L0.631836 23.7892L6.94763 15.3681L1.68447 16.2102Z" fill="#FAFAFA"/>
<path d="M0 0.210449L18.3158 6.10519L9.05263 9.05255L0 0.210449Z" fill="#FAFAFA"/>
<path d="M14.9473 11.1579L19.5788 6.52637L27.1578 9.47374L14.9473 11.1579Z" fill="#FAFAFA"/>
<path d="M11.5498 2.48901C11.6929 2.07045 11.9171 1.68419 12.2095 1.35227C12.5019 1.02034 12.8568 0.749265 13.254 0.554506C13.6511 0.359747 14.0828 0.245123 14.5242 0.217178C14.9657 0.189233 15.4084 0.248514 15.8269 0.391637C16.2455 0.53476 16.6317 0.758922 16.9637 1.05132C17.2956 1.34373 17.5667 1.69864 17.7614 2.09581C17.9562 2.49297 18.0708 2.92461 18.0987 3.36607C18.1267 3.80754 18.0674 4.25018 17.9243 4.66873L14.737 3.57887L11.5498 2.48901Z" fill="#FAFAFA"/>
<path d="M40.863 19.7526C39.684 19.7526 38.6665 19.5281 37.8103 19.0789C36.9542 18.6298 36.2945 17.9912 35.8314 17.1632C35.3682 16.3351 35.1366 15.3526 35.1366 14.2158H38.1472C38.1472 15.1842 38.3717 15.9281 38.8208 16.4474C39.284 16.9667 39.9647 17.2263 40.863 17.2263C41.5787 17.2263 42.1472 17.0719 42.5682 16.7632C43.0033 16.4404 43.2208 15.9842 43.2208 15.3947C43.2208 14.9737 43.0805 14.6368 42.7998 14.3842C42.5191 14.1316 42.1401 13.9281 41.663 13.7737C41.1998 13.6053 40.6875 13.4509 40.1261 13.3105C39.5787 13.1702 39.0244 13.0018 38.463 12.8053C37.9015 12.6088 37.3823 12.3561 36.9051 12.0474C36.4419 11.7386 36.07 11.3316 35.7893 10.8263C35.5086 10.307 35.3682 9.65439 35.3682 8.86842C35.3682 8.05439 35.5858 7.32456 36.0208 6.67895C36.47 6.0193 37.0945 5.5 37.8945 5.12105C38.6945 4.7421 39.6349 4.55263 40.7156 4.55263C41.7121 4.55263 42.6244 4.7421 43.4524 5.12105C44.2945 5.5 44.9752 6.04737 45.4945 6.76316C46.0138 7.47895 46.2875 8.34912 46.3156 9.37368H43.2419C43.2279 8.86842 43.0945 8.44737 42.8419 8.11053C42.6033 7.77368 42.2945 7.52105 41.9156 7.35263C41.5507 7.17017 41.1507 7.07895 40.7156 7.07895C40.084 7.07895 39.5577 7.22632 39.1366 7.52105C38.7296 7.81579 38.5261 8.23684 38.5261 8.78421C38.5261 9.17719 38.6665 9.49298 38.9472 9.73158C39.2279 9.97018 39.5998 10.1667 40.063 10.3211C40.5401 10.4614 41.0594 10.6018 41.6208 10.7421C42.1823 10.8684 42.7366 11.0298 43.284 11.2263C43.8454 11.4088 44.3577 11.6684 44.8208 12.0053C45.298 12.3281 45.677 12.7632 45.9577 13.3105C46.2384 13.8579 46.3787 14.5526 46.3787 15.3947C46.3787 16.2509 46.1401 17.0088 45.663 17.6684C45.1858 18.3281 44.5331 18.8404 43.7051 19.2053C42.877 19.5702 41.9296 19.7526 40.863 19.7526ZM50.6606 14.6368V12.1105H54.1764C54.9343 12.1105 55.5449 11.886 56.008 11.4368C56.4712 10.9877 56.7028 10.3982 56.7028 9.66842C56.7028 8.96667 56.4782 8.40526 56.0291 7.98421C55.5799 7.54912 54.9835 7.33158 54.2396 7.33158H50.6606V4.80526H54.2606C55.3835 4.80526 56.3659 5.00877 57.208 5.41579C58.0501 5.80877 58.7028 6.37017 59.1659 7.1C59.6291 7.82982 59.8607 8.68596 59.8607 9.66842C59.8607 10.6649 59.6221 11.5351 59.1449 12.2789C58.6817 13.0228 58.0291 13.6053 57.187 14.0263C56.3449 14.4333 55.3484 14.6368 54.1975 14.6368H50.6606ZM48.4712 19.5V4.80526H51.5238V19.5H48.4712ZM67.0899 19.7526C65.8127 19.7526 64.6899 19.4439 63.7215 18.8263C62.7671 18.2088 62.0233 17.3316 61.4899 16.1947C60.9706 15.0579 60.711 13.7105 60.711 12.1526C60.711 10.5807 60.9706 9.22632 61.4899 8.08947C62.0233 6.95263 62.7671 6.08246 63.7215 5.47895C64.6899 4.8614 65.8127 4.55263 67.0899 4.55263C68.3671 4.55263 69.4829 4.8614 70.4373 5.47895C71.3917 6.08246 72.1285 6.95263 72.6478 8.08947C73.1812 9.21228 73.4478 10.5667 73.4478 12.1526C73.4478 13.7105 73.1812 15.0579 72.6478 16.1947C72.1285 17.3316 71.3917 18.2088 70.4373 18.8263C69.4829 19.4439 68.3671 19.7526 67.0899 19.7526ZM67.0899 17.2263C67.7075 17.2263 68.2548 17.0298 68.732 16.6368C69.2233 16.2298 69.6022 15.6474 69.8689 14.8895C70.1496 14.1316 70.2899 13.2193 70.2899 12.1526C70.2899 11.0719 70.1496 10.1596 69.8689 9.41579C69.6022 8.65789 69.2233 8.08246 68.732 7.68947C68.2548 7.28246 67.7075 7.07895 67.0899 7.07895C66.4724 7.07895 65.918 7.28246 65.4268 7.68947C64.9355 8.08246 64.5496 8.65789 64.2689 9.41579C64.0022 10.1737 63.8689 11.086 63.8689 12.1526C63.8689 13.2193 64.0022 14.1316 64.2689 14.8895C64.5496 15.6474 64.9355 16.2298 65.4268 16.6368C65.918 17.0298 66.4724 17.2263 67.0899 17.2263ZM77.056 13.7947V11.2684H80.5087C80.9999 11.2684 81.428 11.1842 81.7929 11.0158C82.1578 10.8474 82.4455 10.6088 82.656 10.3C82.8666 9.97719 82.9718 9.61228 82.9718 9.20526C82.9718 8.82632 82.8736 8.49649 82.6771 8.21579C82.4946 7.93509 82.242 7.71754 81.9192 7.56316C81.5964 7.40877 81.2315 7.33158 80.8245 7.33158H77.056V4.80526H80.8245C81.849 4.80526 82.7613 4.9807 83.5613 5.33158C84.3613 5.68246 84.9859 6.18772 85.435 6.84737C85.8982 7.49298 86.1297 8.27895 86.1297 9.20526C86.1297 9.7807 85.9964 10.3421 85.7297 10.8895C85.4631 11.4228 85.0771 11.914 84.5718 12.3632C84.0666 12.7982 83.456 13.1491 82.7403 13.4158C82.0385 13.6684 81.2385 13.7947 80.3403 13.7947H77.056ZM74.8666 19.5V4.80526H77.9192V19.5H74.8666ZM83.0139 19.5C82.9859 18.8684 82.8455 18.2368 82.5929 17.6053C82.3543 16.9596 82.0174 16.3421 81.5824 15.7526C81.1473 15.1632 80.5999 14.6298 79.9403 14.1526C79.2946 13.6614 78.5508 13.2474 77.7087 12.9105L81.0982 12.2158C81.9543 12.6368 82.6911 13.1351 83.3087 13.7105C83.9403 14.2719 84.4596 14.8754 84.8666 15.5211C85.2876 16.1526 85.5964 16.8123 85.7929 17.5C86.0034 18.1737 86.1227 18.8404 86.1508 19.5H83.0139ZM91.8643 19.5V7.33158H87.4222V4.80526H99.359V7.33158H94.9169V19.5H91.8643ZM105.03 19.5V4.80526H108.083V19.5H105.03ZM101.557 4.80526H111.557V7.33158H101.557V4.80526ZM101.557 16.9737H111.557V19.5H101.557V16.9737ZM114.323 19.5V4.80526H125.249V7.33158H117.375V10.6368H122.639V13.1632H117.375V19.5H114.323ZM131.321 19.5V13.5632L126.605 4.80526H129.91L131.699 8.11053L132.899 10.9947L134.142 8.08947L135.931 4.80526H139.173L134.373 13.5632V19.5H131.321Z" fill="#FAFAFA"/>
</svg>
